<svg xmlns="http://www.w3.org/2000/svg" version="1.1" xmlns:xlink="http://www.w3.org/1999/xlink" width="200" height="200"><svg xmlns="http://www.w3.org/2000/svg" version="1.1" xmlns:xlink="http://www.w3.org/1999/xlink" width="200" height="200"><svg xmlns="http://www.w3.org/2000/svg" version="1.1" xmlns:xlink="http://www.w3.org/1999/xlink" viewBox="0 0 200 200"><rect width="200" height="200" fill="url('#gradient')"></rect><defs><linearGradient id="gradient" gradientTransform="rotate(45 0.5 0.5)"><stop offset="0%" stop-color="#b53127"></stop><stop offset="100%" stop-color="#5e351c"></stop></linearGradient></defs><g><g fill="#87c8a4" transform="matrix(4.429704397981254,0,0,4.429704397981254,5.24702223144854,131.25222800150996)" stroke="#fbc952" stroke-width="0.2"><path d="M1.07-14.22L5.58-14.22L8.75-4.33L11.91-14.22L16.43-14.22L16.43 0L12.99 0L12.99-3.32L13.32-10.12L9.88 0L7.62 0L4.17-10.13L4.50-3.32L4.50 0L1.07 0L1.07-14.22ZM24.90-10.64L24.84-7.59L23.76-7.67Q22.21-7.67 21.77-6.69L21.77-6.69L21.77 0L18.48 0L18.48-10.57L21.56-10.57L21.67-9.21Q22.50-10.76 23.98-10.76L23.98-10.76Q24.51-10.76 24.90-10.64L24.90-10.64ZM26.38-3.19L26.38-3.19Q27.16-3.19 27.68-2.73Q28.19-2.27 28.19-1.54Q28.19-0.82 27.68-0.36Q27.16 0.11 26.38 0.11L26.38 0.11Q25.59 0.11 25.07-0.36Q24.56-0.83 24.56-1.54Q24.56-2.26 25.07-2.72Q25.59-3.19 26.38-3.19ZM35.21 0L30.54 0L30.54-14.22L35.12-14.22Q37.00-14.22 38.51-13.36Q40.01-12.51 40.85-10.95Q41.70-9.39 41.71-7.46L41.71-7.46L41.71-6.81Q41.71-4.85 40.88-3.31Q40.06-1.76 38.56-0.88Q37.06-0.01 35.21 0L35.21 0ZM35.12-11.57L33.96-11.57L33.96-2.64L35.16-2.64Q36.63-2.64 37.42-3.69Q38.21-4.74 38.21-6.81L38.21-6.81L38.21-7.42Q38.21-9.48 37.42-10.53Q36.63-11.57 35.12-11.57L35.12-11.57Z"></path></g></g></svg></svg><style>@media (prefers-color-scheme: light) { :root { filter: none; } }
@media (prefers-color-scheme: dark) { :root { filter: none; } }
</style></svg>